# xmcd
#
# Track frame offsets:
#	150
#	18825
#	36300
#	52500
#	69900
#	93600
#	113700
#	133200
#	153975
#	172650
#	190125
#	206325
#	223725
#	247425
#	267525
#	287025
#
# Disc length: 4104 seconds
#
# Revision: 2
# Processed by: cddbd v1.5.2PL0 Copyright (c) Steve Scherf et al.
# Submitted via: audiograbber 1.83.01
#
DISCID=e5100610
DTITLE=Karaoke [CDG) - SYB1603-MPLX  Guy Rock 1
DYEAR=2002
DGENRE=Pop
TTITLE0=Nickelback (style of) - How You Remind Me
TTITLE1=Smash Mouth (style of) - All Star
TTITLE2='N Sync (style of) - Bye Bye Bye
TTITLE3=The Calling (style of) - Wherever You Will Go
TTITLE4=Santana and Rob Thomas (style of) - Smooth
TTITLE5=Backstreet Boys (style of) - I Want It That Way
TTITLE6=Lifehouse (style of) - Hanging by a Moment
TTITLE7=Usher (style of) - U Got It Bad
TTITLE8=Nickelback (style of) - How You Remind Me (with vocals)
TTITLE9=Smash Mouth (style of) - All Star (with vocals)
TTITLE10='N Sync (style of) - Bye Bye Bye (with vocals)
TTITLE11=The Calling (style of) - Wherever You Will Go (with vocals)
TTITLE12=Santana and Rob Thomas (style of) - Smooth (with vocals)
TTITLE13=Backstreet Boys (style of) - I Want It That Way (with vocals)
TTITLE14=Lifehouse (style of) - Hanging by a Moment (with vocals)
TTITLE15=Usher (style of) - U Got It Bad (with vocals)
EXTD=
EXTT0=
EXTT1=
EXTT2=
EXTT3=
EXTT4=
EXTT5=
EXTT6=
EXTT7=
EXTT8=
EXTT9=
EXTT10=
EXTT11=
EXTT12=
EXTT13=
EXTT14=
EXTT15=
PLAYORDER=
